<svg xmlns="http://www.w3.org/2000/svg" width="12.833" height="14" viewBox="0 0 12.833 14">
  <path id="copy" d="M9.474.375V1.656H1.363v8.906H0V1.656A1.2,1.2,0,0,1,.4.747,1.357,1.357,0,0,1,1.363.375ZM11.5,2.937a1.318,1.318,0,0,1,.935.373,1.17,1.17,0,0,1,.4.879v8.906a1.2,1.2,0,0,1-.4.909,1.318,1.318,0,0,1-.935.372H4.056A1.359,1.359,0,0,1,3.089,14a1.2,1.2,0,0,1-.4-.908V4.188a1.167,1.167,0,0,1,.4-.879,1.361,1.361,0,0,1,.966-.373H11.5Zm0,10.157V4.188H4.056v8.906H11.5Z" transform="translate(0 -0.375)" fill="#0d3148"/>
</svg>
